<svg xmlns="http://www.w3.org/2000/svg" xmlns:xlink="http://www.w3.org/1999/xlink" viewBox="0 0 650 650"><defs><style>.cls-1{fill:url(#Безымянный_градиент_263);}.cls-2{fill:url(#Безымянный_градиент_5);}.cls-18,.cls-26,.cls-3,.cls-30,.cls-39,.cls-44,.cls-5{fill:none;stroke-miterlimit:10;}.cls-3{stroke-width:0.73px;stroke:url(#Безымянный_градиент_10);}.cls-4{fill:url(#Безымянный_градиент_17);}.cls-5{stroke-width:2.1px;stroke:url(#Безымянный_градиент_164);}.cls-6{fill:url(#Безымянный_градиент_5-2);}.cls-7{fill:url(#Безымянный_градиент_5-3);}.cls-8{fill:url(#Безымянный_градиент_5-4);}.cls-9{fill:url(#Безымянный_градиент_5-5);}.cls-10{fill:url(#Безымянный_градиент_5-6);}.cls-11{fill:url(#Безымянный_градиент_5-7);}.cls-12{fill:url(#Безымянный_градиент_18);}.cls-13{fill:url(#Безымянный_градиент_33);}.cls-14{fill:url(#Безымянный_градиент_33-2);}.cls-15{fill:url(#Безымянный_градиент_33-3);}.cls-16{fill:url(#Безымянный_градиент_17-2);}.cls-17{fill:url(#Безымянный_градиент_33-4);}.cls-18{stroke-width:1.22px;stroke:url(#Безымянный_градиент_33-5);}.cls-19{fill:url(#Безымянный_градиент_33-6);}.cls-20{fill:url(#Безымянный_градиент_17-3);}.cls-21{fill:url(#Безымянный_градиент_33-7);}.cls-22{fill:url(#Безымянный_градиент_11);}.cls-23{fill:url(#Безымянный_градиент_16);}.cls-24{fill:url(#Безымянный_градиент_123);}.cls-25{fill:url(#Безымянный_градиент_250);}.cls-26,.cls-30,.cls-39,.cls-44{stroke:#fff;}.cls-26{stroke-width:0.54px;}.cls-27{fill:#1f1844;}.cls-28{fill:#737cbd;}.cls-29{fill:#f0eff3;}.cls-30{stroke-width:6px;}.cls-31{fill:#fff;}.cls-32{fill:url(#Безымянный_градиент_123-2);}.cls-33{fill:url(#Безымянный_градиент_250-2);}.cls-34{fill:url(#Безымянный_градиент_123-3);}.cls-35{fill:url(#Безымянный_градиент_123-4);}.cls-36{fill:url(#Безымянный_градиент_122);}.cls-37{fill:url(#Безымянный_градиент_48);}.cls-38{fill:url(#Безымянный_градиент_123-5);}.cls-39,.cls-44{stroke-linecap:round;}.cls-39{stroke-width:0.67px;}.cls-40{fill:url(#Безымянный_градиент_23);}.cls-41{fill:url(#Безымянный_градиент_13);}.cls-42{fill:url(#Безымянный_градиент_13-2);}.cls-43{fill:url(#Безымянный_градиент_250-3);}.cls-44{stroke-width:0.69px;}</style><linearGradient id="Безымянный_градиент_263" x1="14.58" y1="304.14" x2="641.09" y2="304.14" gradientUnits="userSpaceOnUse"><stop offset="0" stop-color="#f0f2f5"/><stop offset="0.99" stop-color="#f5f7f8"/></linearGradient><linearGradient id="Безымянный_градиент_5" x1="102.73" y1="467.13" x2="83.45" y2="320.78" gradientUnits="userSpaceOnUse"><stop offset="0" stop-color="#1f1844"/><stop offset="0.99" stop-color="#3d3c99"/></linearGradient><linearGradient id="Безымянный_градиент_10" x1="101.76" y1="463.36" x2="84.8" y2="334.63" gradientUnits="userSpaceOnUse"><stop offset="0" stop-color="#3f3d9e"/><stop offset="0.99" stop-color="#423e9f"/></linearGradient><linearGradient id="Безымянный_градиент_17" x1="111.65" y1="413.29" x2="183.22" y2="396.85" gradientUnits="userSpaceOnUse"><stop offset="0.01" stop-color="#bbc0d9"/><stop offset="1" stop-color="#d6dbf8"/></linearGradient><linearGradient id="Безымянный_градиент_164" x1="366.93" y1="223.92" x2="421.69" y2="233.95" gradientTransform="translate(-286.41 270.51) rotate(-10.18)" gradientUnits="userSpaceOnUse"><stop offset="0" stop-color="#bac6d8"/><stop offset="0.99" stop-color="#d6dbf8"/></linearGradient><linearGradient id="Безымянный_градиент_5-2" x1="101.37" y1="416.29" x2="79.43" y2="394.73" xlink:href="#Безымянный_градиент_5"/><linearGradient id="Безымянный_градиент_5-3" x1="100.68" y1="434.42" x2="75.14" y2="425.53" xlink:href="#Безымянный_градиент_5"/><linearGradient id="Безымянный_градиент_5-4" x1="102.58" y1="416.24" x2="125.8" y2="397.96" xlink:href="#Безымянный_градиент_5"/><linearGradient id="Безымянный_градиент_5-5" x1="100.89" y1="434.45" x2="123.43" y2="423.65" xlink:href="#Безымянный_градиент_5"/><linearGradient id="Безымянный_градиент_5-6" x1="104.91" y1="451.41" x2="74.9" y2="447.82" xlink:href="#Безымянный_градиент_5"/><linearGradient id="Безымянный_градиент_5-7" x1="101.58" y1="453.52" x2="122.09" y2="440.99" xlink:href="#Безымянный_градиент_5"/><linearGradient id="Безымянный_градиент_18" x1="109.27" y1="368.96" x2="102.25" y2="397.65" gradientUnits="userSpaceOnUse"><stop offset="0.01" stop-color="#3d3c99"/><stop offset="1" stop-color="#1f1844"/></linearGradient><linearGradient id="Безымянный_градиент_33" x1="1294.97" y1="101.36" x2="1304.23" y2="101.36" gradientTransform="translate(-894.62 1259.68) rotate(-45.37)" gradientUnits="userSpaceOnUse"><stop offset="0" stop-color="#e0e4eb"/><stop offset="0.99" stop-color="#f3f6fd"/></linearGradient><linearGradient id="Безымянный_градиент_33-2" x1="1956.21" y1="478.5" x2="1965.57" y2="478.5" gradientTransform="translate(-966.86 2152.18) rotate(-72.22)" xlink:href="#Безымянный_градиент_33"/><linearGradient id="Безымянный_градиент_33-3" x1="-588.66" y1="1623.32" x2="-579.38" y2="1623.32" gradientTransform="matrix(0.63, 0.78, -0.78, 0.63, 1741.85, -165.3)" xlink:href="#Безымянный_градиент_33"/><linearGradient id="Безымянный_градиент_17-2" x1="114.37" y1="433.49" x2="124.04" y2="423.57" xlink:href="#Безымянный_градиент_17"/><linearGradient id="Безымянный_градиент_33-4" x1="-579.49" y1="1946.05" x2="-569.99" y2="1946.05" gradientTransform="matrix(0.5, 0.87, -0.77, 0.45, 1897.4, 55.42)" xlink:href="#Безымянный_градиент_33"/><linearGradient id="Безымянный_градиент_33-5" x1="439.58" y1="195.71" x2="453.24" y2="195.71" gradientTransform="translate(-373.35 342.9) rotate(-13.38)" xlink:href="#Безымянный_градиент_33"/><linearGradient id="Безымянный_градиент_33-6" x1="2396.89" y1="789.15" x2="2406.61" y2="789.15" gradientTransform="matrix(0.04, -0.93, 1, 0.04, -798.57, 2653.11)" xlink:href="#Безымянный_градиент_33"/><linearGradient id="Безымянный_градиент_17-3" x1="114.59" y1="449.07" x2="124.24" y2="438.36" xlink:href="#Безымянный_градиент_17"/><linearGradient id="Безымянный_градиент_33-7" x1="-479.42" y1="2368.4" x2="-468.9" y2="2368.4" gradientTransform="matrix(0.35, 0.94, -0.74, 0.28, 2035.37, 232.99)" xlink:href="#Безымянный_градиент_33"/><linearGradient id="Безымянный_градиент_11" x1="110.78" y1="368.55" x2="103.76" y2="397.24" gradientUnits="userSpaceOnUse"><stop offset="0" stop-color="#e6eaf1"/><stop offset="0.99" stop-color="#f3f6fd"/></linearGradient><linearGradient id="Безымянный_градиент_16" x1="82.09" y1="494.44" x2="135.55" y2="482.16" gradientUnits="userSpaceOnUse"><stop offset="0.11" stop-color="#8988d5"/><stop offset="0.56" stop-color="#9d9ce8"/><stop offset="1" stop-color="#a7a5ee"/></linearGradient><linearGradient id="Безымянный_градиент_123" x1="-305.75" y1="1477.73" x2="-315.83" y2="1460.01" gradientTransform="translate(1424.63 -501.32) rotate(37)" gradientUnits="userSpaceOnUse"><stop offset="0" stop-color="#753200"/><stop offset="1" stop-color="#a04400"/></linearGradient><linearGradient id="Безымянный_градиент_250" x1="255.22" y1="496.3" x2="306.08" y2="496.3" gradientUnits="userSpaceOnUse"><stop offset="0" stop-color="#a7a5ee"/><stop offset="0.44" stop-color="#9d9ce8"/><stop offset="0.89" stop-color="#8988d5"/></linearGradient><linearGradient id="Безымянный_градиент_123-2" x1="3046.78" y1="820.74" x2="3057.57" y2="800.62" gradientTransform="translate(-80.9 3545.15) rotate(-97.51)" xlink:href="#Безымянный_градиент_123"/><linearGradient id="Безымянный_градиент_250-2" x1="239.33" y1="271.76" x2="342.4" y2="271.76" xlink:href="#Безымянный_градиент_250"/><linearGradient id="Безымянный_градиент_123-3" x1="-63.07" y1="1054.8" x2="-58.38" y2="1054.8" gradientTransform="translate(784.82 -782.82) rotate(22.37)" xlink:href="#Безымянный_градиент_123"/><linearGradient id="Безымянный_градиент_123-4" x1="-114.53" y1="1089.74" x2="-79.51" y2="1069.73" gradientTransform="translate(784.82 -782.82) rotate(22.37)" xlink:href="#Безымянный_градиент_123"/><linearGradient id="Безымянный_градиент_122" x1="-89.43" y1="1054.61" x2="-68.84" y2="1041.3" gradientTransform="translate(784.82 -782.82) rotate(22.37)" gradientUnits="userSpaceOnUse"><stop offset="0" stop-color="#a04400" stop-opacity="0"/><stop offset="0.18" stop-color="#9a4100" stop-opacity="0.14"/><stop offset="0.52" stop-color="#8a3b00" stop-opacity="0.52"/><stop offset="0.9" stop-color="#753200"/></linearGradient><linearGradient id="Безымянный_градиент_48" x1="-60.89" y1="1073.28" x2="-78.9" y2="1090.96" gradientTransform="translate(784.82 -782.82) rotate(22.37)" gradientUnits="userSpaceOnUse"><stop offset="0" stop-color="#a04400"/><stop offset="1" stop-color="#753200"/></linearGradient><linearGradient id="Безымянный_градиент_123-5" x1="-60.81" y1="1060.82" x2="-63.13" y2="1063.11" gradientTransform="translate(784.82 -782.82) rotate(22.37)" xlink:href="#Безымянный_градиент_123"/><linearGradient id="Безымянный_градиент_23" x1="3052.42" y1="772.26" x2="3063.99" y2="708.83" gradientTransform="matrix(-0.95, -0.32, -0.32, 0.95, 3397.43, 566.11)" gradientUnits="userSpaceOnUse"><stop offset="0" stop-color="#9594e0"/><stop offset="0.63" stop-color="#7170b0"/></linearGradient><linearGradient id="Безымянный_градиент_13" x1="2620.25" y1="230.28" x2="2655.87" y2="230.28" gradientTransform="translate(-194.74 2959.13) rotate(-84)" gradientUnits="userSpaceOnUse"><stop offset="0" stop-color="#a04400"/><stop offset="0.3" stop-color="#9c4200"/><stop offset="0.62" stop-color="#8e3d00"/><stop offset="0.95" stop-color="#793300"/><stop offset="1" stop-color="#753200"/></linearGradient><linearGradient id="Безымянный_градиент_13-2" x1="2748.68" y1="2866.92" x2="2784.66" y2="2866.92" gradientTransform="matrix(0.01, -1, -1, -0.01, 3094.61, 3125.65)" xlink:href="#Безымянный_градиент_13"/><linearGradient id="Безымянный_градиент_250-3" x1="402.13" y1="354.06" x2="430.69" y2="354.06" gradientTransform="translate(-109.09 98.56) rotate(-3.55)" xlink:href="#Безымянный_градиент_250"/></defs><title>1</title><g id="Слой_2" data-name="Слой 2"><path class="cls-1" d="M619.7,316.62C564.68,204.15,407.32,39.42,202.86,39c-213.36-.44-234,211.17-119,270S30.71,441.12,150.91,514.79c121.66,74.56,381.67,67.56,445.67,9.56S643.46,365.21,619.7,316.62Z"/><path class="cls-2" d="M103,468.17s21.23-23.63,19-32.95S132.85,414.6,133.11,401c.29-15.36-7.92-11.26-10.76-17.83-4.21-9.74,5.16-18.36-9-22.09-9.68-2.54-16.48,2.42-15.6-9.55s-3.45-26.79-11.2-32.17c-11.08-7.68-33.61-8.29-26,7.2,8,16.28.95,43.09-.91,50.43C40,454.61,103,468.17,103,468.17Z"/><path class="cls-3" d="M79.27,335.36c2.43,20,27.55,52,16.17,73.43s5.87,54.5,5.87,54.5"/><path class="cls-4" d="M167.29,423.42c-13.79,4.87,1.14,22.71-13.94,30.74s-34.41,12.11-35.29,8.21c-.06-.26-.87-2.85-1.73-6.63-.2-.87-.39-1.82-.59-2.81,0-.28-.1-.56-.16-.84a76.31,76.31,0,0,1-1.14-9.13c0-.09,0-.19,0-.28-.07-1.22-.09-2.44-.07-3.66s.09-2.34.21-3.48c.45-4.34,1.69-8.34,4.23-11.21a12,12,0,0,1,2.2-2c10.48-7.29,14.66-3.75,14.58-14.52-.14-18.46,5.12-21.22,11.3-19.39s11,2.33,11.92-4.49-4.68-37.23,9.37-37.17c24.34.08,12,31.14,9.57,36.18-5.9,12.08,6.37,14,9.28,22.78S181.07,418.55,167.29,423.42Z"/><path class="cls-5" d="M115.35,488.89s-3.7-34,22.19-53c11.7-8.6,33.44-39.31,31.47-72.54"/><path class="cls-6" d="M79.05,394.4c3.22-5.45,26.34,17,22.29,22S76,399.59,79.05,394.4Z"/><path class="cls-7" d="M73.22,425.08c.46-6.35,28.38,2.78,26.94,9.06S72.78,431.13,73.22,425.08Z"/><path class="cls-8" d="M125.91,397c4.94,3.87-19.47,24.9-23.82,20.24S121.2,393.36,125.91,397Z"/><path class="cls-9" d="M123.35,423.53c4.16,4.7-19.41,16.51-23,11.18S119.39,419.06,123.35,423.53Z"/><path class="cls-10" d="M75.07,447.91c-1.22-5.83,29.55-2.47,29.82,3.53S76.23,453.47,75.07,447.91Z"/><path class="cls-11" d="M121.85,441.12c3.19,5.4-18.86,18.86-21.42,13S118.82,436,121.85,441.12Z"/><path class="cls-12" d="M109.69,368.17c6.21.45-1.82,31.75-8,30.3S103.77,367.74,109.69,368.17Z"/><path class="cls-13" d="M81.38,392.91c3.22-5.45,26.34,17,22.29,22S78.32,398.11,81.38,392.91Z"/><path class="cls-14" d="M75.08,423.78c.46-6.35,28.38,2.78,26.94,9.06S74.63,429.83,75.08,423.78Z"/><path class="cls-15" d="M126.85,395.65c4.94,3.87-19.47,24.9-23.82,20.24S122.14,392,126.85,395.65Z"/><path class="cls-16" d="M115.08,434.33c.43-4.26,1.62-8.19,4.06-11,3-.59,5.43-.47,6.51.75C128,426.68,121.7,431.49,115.08,434.33Z"/><path class="cls-17" d="M124.52,422.54c4.16,4.7-19.41,16.51-23,11.18S120.56,418.06,124.52,422.54Z"/><path class="cls-18" d="M103.39,391.09s.71,16.26-1.44,30.45,3.28,38.2,12.12,45.88"/><path class="cls-19" d="M75.07,446.8c-1.22-5.83,29.55-2.47,29.82,3.53S76.23,452.35,75.07,446.8Z"/><path class="cls-20" d="M116.2,451.42c0-.27-.1-.55-.15-.83a76.58,76.58,0,0,1-1.09-9c0-.09,0-.19,0-.28,5-2.78,10.39-4.18,11.8-1.78C128.54,442.6,122.39,448.16,116.2,451.42Z"/><path class="cls-21" d="M125.62,437.27c3.19,5.4-18.86,18.86-21.42,13S122.58,432.13,125.62,437.27Z"/><path class="cls-22" d="M111.2,367.76c6.21.45-1.82,31.75-8,30.3S105.28,367.32,111.2,367.76Z"/><path class="cls-23" d="M116.53,517.92H97.4A17.22,17.22,0,0,1,80.34,503l-4.75-35.2a4,4,0,0,1,3.94-4.51H134.4a4,4,0,0,1,3.94,4.51L133.6,503A17.22,17.22,0,0,1,116.53,517.92Z"/><polygon class="cls-24" points="284.74 473.84 283.31 483.88 286.71 493.2 289.79 494.93 299.9 489.34 301.67 484.65 298 475.02 284.74 473.84"/><path class="cls-25" d="M283.21,479s5.27,7.19,4.93,10.41,9.31-.12,10.19-5.46,3.14-2.65,3.85.32,3.08,3,3.56,5.1,1.3,6.62-4.17,9.79-11.4,1.84-15.78,4-9.11,9.74-13.8,10.38-12.37.18-16-7,7.37-11.06,10.17-12,8-7.32,10.17-10S280.49,478.18,283.21,479Z"/><path class="cls-26" d="M301.38,485s2.94,4-1.89,7.7-12.34,3.6-16.55,8.16-7.46,9-14.92,8.95-9.17-2.09-9.17-2.09"/><rect class="cls-27" x="333.1" y="72.63" width="214.33" height="443.86" rx="16.49" ry="16.49"/><rect class="cls-28" x="345.7" y="90.85" width="189.14" height="407.42" rx="12.18" ry="12.18"/><path class="cls-27" d="M394.38,84.43h91.77a0,0,0,0,1,0,0v0A19.19,19.19,0,0,1,467,103.62H413.57a19.19,19.19,0,0,1-19.19-19.19v0a0,0,0,0,1,0,0Z"/><path class="cls-27" d="M304,418.58l-1,44a13.24,13.24,0,0,1-.25,2.57l-3.17,10.3a21.15,21.15,0,0,1-8,2c-3.87,0-8.88-2.43-8.88-2.43l-3-8.45a13.24,13.24,0,0,1-.43-2.69l-3.76-51.3Z"/><rect class="cls-29" x="469.04" y="114.69" width="53.58" height="16.88" rx="4.2" ry="4.2"/><rect class="cls-29" x="360.18" y="147.41" width="63.18" height="18.01" rx="4.2" ry="4.2"/><rect class="cls-29" x="365.38" y="119.91" width="52.78" height="6.44" rx="3.22" ry="3.22"/><rect class="cls-29" x="365.49" y="176.05" width="149.55" height="225.42" rx="7.07" ry="7.07"/><rect class="cls-29" x="365.49" y="422.26" width="149.55" height="39.89" rx="7.07" ry="7.07"/><circle class="cls-30" cx="440.27" cy="248.34" r="54.78"/><rect class="cls-31" x="380.27" y="319.35" width="119.99" height="29.19" rx="7.41" ry="7.41"/><rect class="cls-31" x="380.27" y="360.54" width="119.99" height="29.19" rx="7.41" ry="7.41"/><path class="cls-32" d="M316.14,401.68A99.77,99.77,0,0,1,311.6,415s10.82,7.67,11.86,8.53c.87-3.48,10.63-3.07,11.76-6s-6.34-9.3-6-12.89C326.15,404.75,317.92,402.4,316.14,401.68Z"/><path class="cls-27" d="M305.84,393.71s.53-18.26,4.41-33.17c2.25-8.66,6-33.46,1-50.72-3.27-11.39-55.58-9.13-55.58-9.13l-5.42,13.92L224.8,382a18.42,18.42,0,0,0,14.25,23.51l67.37,14.14a6.52,6.52,0,0,0,2.26.09l6.64-.9,3.84-17.21-5.5-4.79a9.05,9.05,0,0,0-2.19-.84Zm-47.86-11,16-36.7,1.6,41Z"/><path class="cls-33" d="M321.49,345.39,308.1,341l13.68-55.42s1-21.14-.29-31.25c-4.45,36.25-7.58,60.92-7.58,60.92s-4.27.09-9.56.12c-7.61,0-18.89-.44-28.62-3-10-2.64-21.27-5.83-21.27-5.83l-3.15,12.81-12,3.65s7.08-100.49,29.83-118.66c7.56-6,21-7.34,26.9-5.38s35.15,9,40.93,16.38c9.12,11.63,4.19,63,3.05,73.7a17.67,17.67,0,0,1-.83,3.78Z"/><path class="cls-34" d="M326.64,173.78c1.28-1.51,3.48-6,4.37-7.27-2.44-.64-5.89,2-6.75,4.08C324.89,170.76,326.17,173.06,326.64,173.78Z"/><path class="cls-35" d="M303,209a8.93,8.93,0,0,1-7.14-8.19,13.32,13.32,0,0,1,.55-3.37l.28-1.19.26-1.1.31-1.35a16.08,16.08,0,0,1-1.83-.61c-4.67-1.89-11.51-6.91-11.93-15.32-.3-5.87,3-10.37,3.86-13.56s.14-5.8.48-9.53c.43-4.78,3.76-10,6.36-10.82,11.74-3.51,28.68,6.93,28.68,6.93s5.46,4.32-.3,16.54c.74-.26-1.21,2.14-.3,2.19a5.63,5.63,0,0,1,4.22,1.91c1.87,2.39.77,6.77-5.35,11.6l-.21.17a29.55,29.55,0,0,0-1.16,3.6c0,.18-.1.37-.15.56-.59,2.25-1.37,5.17-2.11,8-1.07,4.07-1.83,7.61-2.15,9C314.57,207.71,310,210.6,303,209Z"/><path class="cls-36" d="M322.58,167.39c5.76-12.21.3-16.54.3-16.54s-16.94-10.43-28.68-6.93c-1.84.54-2.75,3-3.66,5,4.9-2.19,12.76,1.28,19.19,3.17,3.08.91.82,3.86,1.64,4.24,7.2.56,10.82,5.21,7,14.6l3.81-1.36C321.5,169.36,323.29,167.14,322.58,167.39Z"/><path class="cls-27" d="M331.57,165.88a31.88,31.88,0,0,0,2.09-8.07c1.23-7.41-2.15-12.12-8.74-16.32l-6.46-3.58c-.59-.33-11.63-5.84-18.21-4.9-2.47.35-6.25,2.12-7,4-1.91,4.87-3.08,7.42-3.47,11.55,6.4-9,6.9,4.81,23.46-.17,3.07-.92.82,3.86,1.64,4.24,8.13.64,11.7,6.46,5.22,18.43,2.32-.34,4-1,5.18-.67C327.41,169.23,331.05,167,331.57,165.88Z"/><path class="cls-37" d="M319.61,187.42a29.3,29.3,0,0,1-22.94,8.8l.26-1.1.31-1.35a16.08,16.08,0,0,1-1.83-.61c4.93-1.64,18.7-6.33,25.73-10.07l-.21.17a29.55,29.55,0,0,0-1.16,3.6C319.72,187,319.66,187.22,319.61,187.42Z"/><path class="cls-27" d="M321.59,171c.33-.16,1.27-.5,1.27-.5l.42-2.53-4.15.83a2.14,2.14,0,0,0-1.65,1.55l-2.28,8.65c-5.66.91-19.23,4.63-21.31,4.16-2.64-.6-2.2-4-3.82-3.86s-2.19,2.11-3.12,1.72a15.16,15.16,0,0,1-3.31-5.23s-.55,5.89-.58,7c-.08,2.46,2.8,8.68,2.8,8.68a2.36,2.36,0,0,0,1.55,1.38l6.12,1.7,3.68-.61c5.05-.67,18.32-6,18.87-7.29C319.32,179.34,318.33,172.64,321.59,171Z"/><path class="cls-38" d="M321.67,173.76s2.33-1.93,3.08.19-1.94,4.7-1.94,4.7Z"/><path class="cls-39" d="M292.49,200.1s-.09,9.68,10,12,16-6,16-6"/><path class="cls-40" d="M271,243.18c-9.75,6.17-16.53,63.36-16.53,63.36l10,2.79S265,273.85,271,243.18Z"/><path class="cls-41" d="M308.17,345.78a8.44,8.44,0,0,0-3.25,3.4,12.9,12.9,0,0,0-1,5.06c-.15,2.25-.25,4.5-1.19,6.15s-1.37,1.51-.9,2.36,2.88,1,3.82-.29,2.46-3.54,2.46-3.54a18.54,18.54,0,0,0,1.17,3.18c.69,1.44-.18,5.53-1.07,6.86-1.85,2.8-3.8,6.19-3.56,7.49s2.85-.34,2.85-.34,6.33-4.68,7.76-7.71c.81-1.72,2.33-4.33,2.22-7.71s-.16-10.86-.16-10.86l1.29-5.36L310,341.66S308.62,345.58,308.17,345.78Z"/><path class="cls-42" d="M251.92,324a8.44,8.44,0,0,1,2.85,3.75,12.9,12.9,0,0,1,.41,5.14c-.11,2.26-.26,4.5.49,6.25s1.19,1.65.63,2.44-3,.66-3.76-.71-2.05-3.79-2.05-3.79a18.54,18.54,0,0,1-1.52,3c-.85,1.36-.44,5.51.29,6.94,1.53,3,3.08,6.58,2.7,7.84s-2.79-.66-2.79-.66-5.77-5.36-6.85-8.53c-.62-1.8-1.83-4.56-1.34-7.91S242.34,327,242.34,327l-.7-5.36s5.5-1.33,8.42-2.32C251.09,320.52,251.5,323.78,251.92,324Z"/><path class="cls-43" d="M325.06,441s-.58,6.7.64,9.08,3.18,2.76,5.17,2.69,4.54-2.55,6.48-11a246.82,246.82,0,0,0,4.17-26.27,46.87,46.87,0,0,0-.33-11.11,5,5,0,0,0-4.41-4,13.78,13.78,0,0,1-2.41-.49c-1.48-.48-3,0-4.26-.28s-9.08-.17-9.94,2.15,6.3,5,6.39,9.94-5.92,6.28-5.92,6.28-2.43-2-3.75-.6-2.7.17-3.15,1.23,2.08,4.28,2.08,4.28,6.1,10.62,8.53,14.77A12.46,12.46,0,0,1,325.06,441Z"/><path class="cls-44" d="M332.09,449.6c6.33-15.53,4.3-32.29,4.3-32.29.47-4.83,3-9.93-1.4-15.47l-.36-.49"/></g></svg>