<svg xmlns="http://www.w3.org/2000/svg" xmlns:xlink="http://www.w3.org/1999/xlink" viewBox="0 0 650 650"><defs><style>.cls-1{fill:url(#Безымянный_градиент_263);}.cls-2{fill:url(#Безымянный_градиент_5);}.cls-18,.cls-3,.cls-30,.cls-40,.cls-48,.cls-5,.cls-52,.cls-54{fill:none;stroke-miterlimit:10;}.cls-3{stroke-width:0.93px;stroke:url(#Безымянный_градиент_10);}.cls-4{fill:url(#Безымянный_градиент_17);}.cls-5{stroke-width:2.67px;stroke:url(#Безымянный_градиент_164);}.cls-6{fill:url(#Безымянный_градиент_5-2);}.cls-7{fill:url(#Безымянный_градиент_5-3);}.cls-8{fill:url(#Безымянный_градиент_5-4);}.cls-9{fill:url(#Безымянный_градиент_5-5);}.cls-10{fill:url(#Безымянный_градиент_5-6);}.cls-11{fill:url(#Безымянный_градиент_5-7);}.cls-12{fill:url(#Безымянный_градиент_18);}.cls-13{fill:url(#Безымянный_градиент_33);}.cls-14{fill:url(#Безымянный_градиент_33-2);}.cls-15{fill:url(#Безымянный_градиент_33-3);}.cls-16{fill:url(#Безымянный_градиент_17-2);}.cls-17{fill:url(#Безымянный_градиент_33-4);}.cls-18{stroke-width:1.55px;stroke:url(#Безымянный_градиент_33-5);}.cls-19{fill:url(#Безымянный_градиент_33-6);}.cls-20{fill:url(#Безымянный_градиент_17-3);}.cls-21{fill:url(#Безымянный_градиент_33-7);}.cls-22{fill:url(#Безымянный_градиент_11);}.cls-23{fill:url(#Безымянный_градиент_16);}.cls-24{fill:url(#Безымянный_градиент_170);}.cls-25{fill:#fff;}.cls-26{fill:url(#Безымянный_градиент_170-2);}.cls-27{fill:url(#Безымянный_градиент_123);}.cls-28{fill:url(#Безымянный_градиент_123-2);}.cls-29{fill:#191337;}.cls-30{stroke:#f3f6fd;}.cls-30,.cls-48{stroke-linecap:round;}.cls-31{fill:url(#Безымянный_градиент_170-3);}.cls-32{fill:url(#Безымянный_градиент_170-4);}.cls-33{fill:url(#Безымянный_градиент_216);}.cls-34{fill:url(#Безымянный_градиент_40);}.cls-35{fill:url(#Безымянный_градиент_123-3);}.cls-36{fill:url(#Безымянный_градиент_250);}.cls-37{fill:url(#Безымянный_градиент_51);}.cls-38{fill:url(#Безымянный_градиент_271);}.cls-39{fill:#1f1844;}.cls-40{stroke:#17ff44;stroke-width:1.95px;}.cls-41{fill:url(#Безымянный_градиент_123-4);}.cls-42{fill:url(#Безымянный_градиент_122);}.cls-43{fill:url(#Безымянный_градиент_16-2);}.cls-44{fill:url(#Безымянный_градиент_16-3);}.cls-45{fill:url(#Безымянный_градиент_250-2);}.cls-46{fill:url(#Безымянный_градиент_40-2);}.cls-47{fill:url(#Безымянный_градиент_269);}.cls-48,.cls-54{stroke:#fff;}.cls-49{fill:url(#Безымянный_градиент_48);}.cls-50{fill:url(#Безымянный_градиент_123-5);}.cls-51{fill:url(#Безымянный_градиент_123-6);}.cls-52{stroke:#d6d9e8;stroke-width:5.49px;}.cls-53{fill:url(#Безымянный_градиент_269-2);}.cls-54{stroke-width:0.76px;}</style><linearGradient id="Безымянный_градиент_263" x1="6.49" y1="307.16" x2="633" y2="307.16" gradientUnits="userSpaceOnUse"><stop offset="0" stop-color="#f0f2f5"/><stop offset="0.99" stop-color="#f5f7f8"/></linearGradient><linearGradient id="Безымянный_градиент_5" x1="92.77" y1="464.5" x2="68.23" y2="278.32" gradientUnits="userSpaceOnUse"><stop offset="0" stop-color="#1f1844"/><stop offset="0.99" stop-color="#3d3c99"/></linearGradient><linearGradient id="Безымянный_градиент_10" x1="91.53" y1="459.71" x2="69.95" y2="295.94" gradientUnits="userSpaceOnUse"><stop offset="0" stop-color="#3f3d9e"/><stop offset="0.99" stop-color="#423e9f"/></linearGradient><linearGradient id="Безымянный_градиент_17" x1="104.11" y1="396.02" x2="195.15" y2="375.1" gradientUnits="userSpaceOnUse"><stop offset="0.01" stop-color="#bbc0d9"/><stop offset="1" stop-color="#d6dbf8"/></linearGradient><linearGradient id="Безымянный_градиент_164" x1="524.54" y1="-177.11" x2="594.2" y2="-164.36" gradientTransform="translate(-377.47 679.28) rotate(-10.18)" gradientUnits="userSpaceOnUse"><stop offset="0" stop-color="#bac6d8"/><stop offset="0.99" stop-color="#d6dbf8"/></linearGradient><linearGradient id="Безымянный_градиент_5-2" x1="91.03" y1="399.83" x2="63.11" y2="372.4" xlink:href="#Безымянный_градиент_5"/><linearGradient id="Безымянный_градиент_5-3" x1="90.15" y1="422.89" x2="57.66" y2="411.58" xlink:href="#Безымянный_градиент_5"/><linearGradient id="Безымянный_градиент_5-4" x1="92.57" y1="399.76" x2="122.11" y2="376.52" xlink:href="#Безымянный_градиент_5"/><linearGradient id="Безымянный_градиент_5-5" x1="90.42" y1="422.93" x2="119.1" y2="409.19" xlink:href="#Безымянный_градиент_5"/><linearGradient id="Безымянный_градиент_5-6" x1="95.54" y1="444.51" x2="57.35" y2="439.95" xlink:href="#Безымянный_градиент_5"/><linearGradient id="Безымянный_градиент_5-7" x1="91.3" y1="447.19" x2="117.38" y2="431.25" xlink:href="#Безымянный_градиент_5"/><linearGradient id="Безымянный_градиент_18" x1="101.08" y1="339.62" x2="92.15" y2="376.12" gradientUnits="userSpaceOnUse"><stop offset="0.01" stop-color="#3d3c99"/><stop offset="1" stop-color="#1f1844"/></linearGradient><linearGradient id="Безымянный_градиент_33" x1="2476.46" y1="-1309.41" x2="2488.25" y2="-1309.41" gradientTransform="translate(-734.75 3073.22) rotate(-45.37)" gradientUnits="userSpaceOnUse"><stop offset="0" stop-color="#e0e4eb"/><stop offset="0.99" stop-color="#f3f6fd"/></linearGradient><linearGradient id="Безымянный_градиент_33-2" x1="4206.05" y1="-1183.29" x2="4217.95" y2="-1183.29" gradientTransform="translate(-86.02 4790.82) rotate(-72.22)" xlink:href="#Безымянный_градиент_33"/><linearGradient id="Безымянный_градиент_33-3" x1="-333.17" y1="3628.1" x2="-321.37" y2="3628.1" gradientTransform="matrix(0.63, 0.78, -0.78, 0.63, 3130.17, -1647.34)" xlink:href="#Безымянный_градиент_33"/><linearGradient id="Безымянный_градиент_17-2" x1="107.56" y1="421.71" x2="119.87" y2="409.09" xlink:href="#Безымянный_градиент_17"/><linearGradient id="Безымянный_градиент_33-4" x1="-93.94" y1="4446.12" x2="-81.85" y2="4446.12" gradientTransform="matrix(0.5, 0.87, -0.77, 0.45, 3570.06, -1494.21)" xlink:href="#Безымянный_градиент_33"/><linearGradient id="Безымянный_градиент_33-5" x1="658.58" y1="-319.89" x2="675.96" y2="-319.89" gradientTransform="translate(-477.89 882.87) rotate(-13.38)" xlink:href="#Безымянный_градиент_33"/><linearGradient id="Безымянный_градиент_33-6" x1="5315.35" y1="-774.65" x2="5327.71" y2="-774.65" gradientTransform="matrix(0.04, -0.93, 1, 0.04, 642.09, 5431.38)" xlink:href="#Безымянный_градиент_33"/><linearGradient id="Безымянный_градиент_17-3" x1="107.84" y1="441.53" x2="120.12" y2="427.91" xlink:href="#Безымянный_градиент_17"/><linearGradient id="Безымянный_градиент_33-7" x1="302.93" y1="5438.12" x2="316.31" y2="5438.12" gradientTransform="matrix(0.35, 0.94, -0.74, 0.28, 4032.29, -1356.92)" xlink:href="#Безымянный_градиент_33"/><linearGradient id="Безымянный_градиент_11" x1="103" y1="339.1" x2="94.07" y2="375.6" gradientUnits="userSpaceOnUse"><stop offset="0" stop-color="#e6eaf1"/><stop offset="0.99" stop-color="#f3f6fd"/></linearGradient><linearGradient id="Безымянный_градиент_16" x1="66.5" y1="499.25" x2="134.52" y2="483.62" gradientUnits="userSpaceOnUse"><stop offset="0.11" stop-color="#8988d5"/><stop offset="0.56" stop-color="#9d9ce8"/><stop offset="1" stop-color="#a7a5ee"/></linearGradient><linearGradient id="Безымянный_градиент_170" x1="86.51" y1="182.34" x2="401.8" y2="182.34" gradientUnits="userSpaceOnUse"><stop offset="0.01" stop-color="#bbbfd9"/><stop offset="1" stop-color="#d6dbf8"/></linearGradient><linearGradient id="Безымянный_градиент_170-2" x1="414.6" y1="442.69" x2="441.01" y2="442.69" xlink:href="#Безымянный_градиент_170"/><linearGradient id="Безымянный_градиент_123" x1="440.34" y1="482.46" x2="428.01" y2="460.79" gradientUnits="userSpaceOnUse"><stop offset="0" stop-color="#753200"/><stop offset="1" stop-color="#a04400"/></linearGradient><linearGradient id="Безымянный_градиент_123-2" x1="477.78" y1="154.41" x2="484.81" y2="154.41" xlink:href="#Безымянный_градиент_123"/><linearGradient id="Безымянный_градиент_170-3" x1="512.47" y1="437.04" x2="539.33" y2="437.04" xlink:href="#Безымянный_градиент_170"/><linearGradient id="Безымянный_градиент_170-4" x1="476.01" y1="444.53" x2="500.94" y2="444.53" xlink:href="#Безымянный_градиент_170"/><linearGradient id="Безымянный_градиент_216" x1="477.43" y1="387.7" x2="477.43" y2="222.67" gradientUnits="userSpaceOnUse"><stop offset="0" stop-color="#201f4f"/><stop offset="0.39" stop-color="#3d3c99"/><stop offset="1" stop-color="#403da0"/></linearGradient><linearGradient id="Безымянный_градиент_40" x1="529.26" y1="308.74" x2="544.26" y2="310.24" gradientUnits="userSpaceOnUse"><stop offset="0.11" stop-color="#343381"/><stop offset="0.56" stop-color="#3d3c99"/><stop offset="1" stop-color="#403da0"/></linearGradient><linearGradient id="Безымянный_градиент_123-3" x1="335.14" y1="505.57" x2="350.72" y2="476.52" xlink:href="#Безымянный_градиент_123"/><linearGradient id="Безымянный_градиент_250" x1="489.05" y1="252.39" x2="633.41" y2="252.39" gradientUnits="userSpaceOnUse"><stop offset="0" stop-color="#a7a5ee"/><stop offset="0.44" stop-color="#9d9ce8"/><stop offset="0.89" stop-color="#8988d5"/></linearGradient><linearGradient id="Безымянный_градиент_51" x1="414.66" y1="303.33" x2="405.72" y2="276.91" gradientUnits="userSpaceOnUse"><stop offset="0" stop-color="#753200"/><stop offset="0.05" stop-color="#793300"/><stop offset="0.38" stop-color="#8e3d00"/><stop offset="0.7" stop-color="#9c4200"/><stop offset="1" stop-color="#a04400"/></linearGradient><linearGradient id="Безымянный_градиент_271" x1="268.89" y1="281.23" x2="403.43" y2="281.23" gradientUnits="userSpaceOnUse"><stop offset="0.01" stop-color="#bbbfd9"/><stop offset="0.29" stop-color="#cacde2"/><stop offset="0.84" stop-color="#f2f3f8"/><stop offset="1" stop-color="#fff"/></linearGradient><linearGradient id="Безымянный_градиент_123-4" x1="400.66" y1="206.78" x2="453.15" y2="176.78" xlink:href="#Безымянный_градиент_123"/><linearGradient id="Безымянный_градиент_122" x1="438.28" y1="154.12" x2="469.13" y2="134.18" gradientUnits="userSpaceOnUse"><stop offset="0" stop-color="#a04400" stop-opacity="0"/><stop offset="0.18" stop-color="#9a4100" stop-opacity="0.14"/><stop offset="0.52" stop-color="#8a3b00" stop-opacity="0.52"/><stop offset="0.9" stop-color="#753200"/></linearGradient><linearGradient id="Безымянный_градиент_16-2" x1="564.4" y1="425.19" x2="582.43" y2="425.19" xlink:href="#Безымянный_градиент_16"/><linearGradient id="Безымянный_градиент_16-3" x1="256.07" y1="425.19" x2="272.9" y2="425.19" xlink:href="#Безымянный_градиент_16"/><linearGradient id="Безымянный_градиент_250-2" x1="423.24" y1="309.45" x2="517.64" y2="309.45" xlink:href="#Безымянный_градиент_250"/><linearGradient id="Безымянный_градиент_40-2" x1="419.15" y1="336.06" x2="419.15" y2="319.01" xlink:href="#Безымянный_градиент_40"/><linearGradient id="Безымянный_градиент_269" x1="385.1" y1="307.86" x2="417.5" y2="265.5" gradientUnits="userSpaceOnUse"><stop offset="0" stop-color="#fff"/><stop offset="0.16" stop-color="#f2f3f8"/><stop offset="0.71" stop-color="#cacde2"/><stop offset="0.99" stop-color="#bbbfd9"/></linearGradient><linearGradient id="Безымянный_градиент_48" x1="481.06" y1="182.1" x2="454.06" y2="208.6" gradientUnits="userSpaceOnUse"><stop offset="0" stop-color="#a04400"/><stop offset="1" stop-color="#753200"/></linearGradient><linearGradient id="Безымянный_градиент_123-5" x1="481.18" y1="163.44" x2="477.69" y2="166.86" xlink:href="#Безымянный_градиент_123"/><linearGradient id="Безымянный_градиент_123-6" x1="468.8" y1="245.63" x2="465.76" y2="293.18" xlink:href="#Безымянный_градиент_123"/><linearGradient id="Безымянный_градиент_269-2" x1="449.37" y1="300.83" x2="477.45" y2="300.83" xlink:href="#Безымянный_градиент_269"/></defs><title>1</title><g id="Слой_2" data-name="Слой 2"><path class="cls-1" d="M611.6,319.65C556.59,207.17,399.23,42.44,194.77,42c-213.36-.44-234,211.17-119,270S22.62,444.15,142.82,517.81c121.66,74.56,381.67,67.56,445.67,9.56S635.37,368.24,611.6,319.65Z"/><path class="cls-2" d="M93,465.83s27-30.06,24.14-41.91,13.89-26.24,14.22-43.5c.37-19.55-10.07-14.32-13.69-22.68-5.36-12.39,6.57-23.36-11.46-28.1-12.31-3.24-21,3.08-19.84-12.15S82,283.41,72.16,276.57c-14.09-9.78-42.76-10.54-33.1,9.16,10.15,20.71,1.2,54.81-1.16,64.15C12.9,448.58,93,465.83,93,465.83Z"/><path class="cls-3" d="M62.91,296.87c3.09,25.48,35,66.2,20.57,93.41s7.47,69.34,7.47,69.34"/><path class="cls-4" d="M174.88,408.9c-17.54,6.2,1.45,28.89-17.73,39.11s-43.77,15.4-44.9,10.44c-.08-.33-1.11-3.62-2.2-8.43-.25-1.11-.5-2.31-.75-3.57-.06-.35-.13-.71-.2-1.07a97.08,97.08,0,0,1-1.45-11.61c0-.12,0-.24,0-.36-.09-1.55-.12-3.11-.09-4.66s.11-3,.27-4.43c.57-5.52,2.15-10.61,5.38-14.26a15.27,15.27,0,0,1,2.8-2.51c13.33-9.27,18.65-4.77,18.55-18.47-.18-23.48,6.51-27,14.38-24.67s14,3,15.17-5.71-6-47.36,11.92-47.29c31,.1,15.31,39.62,12.18,46-7.5,15.37,8.1,17.78,11.81,29S192.41,402.7,174.88,408.9Z"/><path class="cls-5" d="M108.82,492.19S104.11,449,137,424.75c14.88-10.94,42.54-50,40-92.28"/><path class="cls-6" d="M62.64,372c4.09-6.94,33.51,21.68,28.36,28S58.74,378.59,62.64,372Z"/><path class="cls-7" d="M55.22,411c.59-8.08,36.1,3.54,34.28,11.52S54.66,418.71,55.22,411Z"/><path class="cls-8" d="M122.25,375.35c6.29,4.93-24.76,31.67-30.3,25.74S116.26,370.65,122.25,375.35Z"/><path class="cls-9" d="M119,409c5.29,6-24.7,21-29.2,14.23S114,403.35,119,409Z"/><path class="cls-10" d="M57.57,440.06c-1.55-7.42,37.59-3.15,37.93,4.49S59.05,447.12,57.57,440.06Z"/><path class="cls-11" d="M117.09,431.42c4.06,6.86-24,24-27.25,16.51S113.22,424.88,117.09,431.42Z"/><path class="cls-12" d="M101.62,338.61c7.9.58-2.32,40.39-10.13,38.55S94.09,338.06,101.62,338.61Z"/><path class="cls-13" d="M65.61,370.09c4.09-6.94,33.51,21.68,28.36,28S61.71,376.7,65.61,370.09Z"/><path class="cls-14" d="M57.58,409.36c.59-8.08,36.1,3.54,34.28,11.52S57,417.05,57.58,409.36Z"/><path class="cls-15" d="M123.45,373.57c6.29,4.93-24.76,31.67-30.3,25.74S117.46,368.88,123.45,373.57Z"/><path class="cls-16" d="M108.47,422.79c.55-5.42,2.06-10.42,5.17-14,3.75-.75,6.9-.6,8.28,1C124.85,413.05,116.89,419.17,108.47,422.79Z"/><path class="cls-17" d="M120.48,407.78c5.29,6-24.7,21-29.2,14.23S115.44,402.08,120.48,407.78Z"/><path class="cls-18" d="M93.6,367.77s.9,20.68-1.84,38.73,4.17,48.6,15.42,58.36"/><path class="cls-19" d="M57.57,438.64c-1.55-7.42,37.59-3.15,37.93,4.49S59.05,445.71,57.57,438.64Z"/><path class="cls-20" d="M109.9,444.52c-.06-.34-.12-.7-.19-1.05a97.42,97.42,0,0,1-1.39-11.4c0-.12,0-.24,0-.35,6.39-3.54,13.21-5.32,15-2.26C125.59,433.31,117.77,440.38,109.9,444.52Z"/><path class="cls-21" d="M121.88,426.52c4.06,6.86-24,24-27.25,16.51S118,420,121.88,426.52Z"/><path class="cls-22" d="M103.53,338.09c7.9.58-2.32,40.39-10.13,38.55S96,337.54,103.53,338.09Z"/><path class="cls-23" d="M110.31,529.12H86a21.91,21.91,0,0,1-21.71-19l-6-44.78a5.06,5.06,0,0,1,5-5.73H133a5.06,5.06,0,0,1,5,5.73l-6,44.78A21.91,21.91,0,0,1,110.31,529.12Z"/><rect class="cls-24" x="86.51" y="74.09" width="315.29" height="216.5" rx="11.45" ry="11.45"/><rect class="cls-25" x="95.48" y="83.38" width="297.35" height="197.93" rx="6.84" ry="6.84"/><path class="cls-26" d="M420.71,499.61a6.11,6.11,0,0,1-6-7l14.41-106.86L441,387.12,426.75,494.37C426.32,497.38,420.71,499.61,420.71,499.61Z"/><polygon class="cls-27" points="416.73 466.99 422.07 476.66 433.9 484.33 438.87 483.66 445.57 468.66 443.57 461.83 435.07 457.83 416.73 466.99"/><path class="cls-28" d="M482.9,160.69c.91-2.82,1.43-10.24,1.91-12.56-3.75.51-7,6.11-7,9.5C478.76,157.5,481.85,160,482.9,160.69Z"/><path class="cls-29" d="M432.05,337.56c-10,1.7-38.69,6.66-46.17,16-5.76,7.2-10,28.31-20.09,53.09-2.93-7.36-6.65-20.71-8.51-27.7-2.59-9.74-5-31.45,17.12-37.08C389,338.15,421,336.84,432.05,337.56Z"/><path class="cls-30" d="M414.6,336.87S390,339.36,378.82,353c-8.75,10.68-16.62,43.19-16.62,43.19"/><path class="cls-31" d="M527.26,491.76,512.47,382.87l10-4,16.73,110.8c.69,3.94-2.34,4.66-5.33,5.2S528,495.78,527.26,491.76Z"/><path class="cls-32" d="M488.65,504.81,476,380.68h12.34l12.57,123.25c.28,3.83-2.64,3.68-5.52,4.11C492.19,508.52,489,509.14,488.65,504.81Z"/><path class="cls-33" d="M534.44,366.22c-2.61,19.29-31,22-64,23.07-1,.5-37.46.28-54.44-5.44l.59-130.62c0-11,4.71-29.23,20.81-29.5,27-.45,77.15-4.57,96.78,1.5,4.49,16.12,7.76,33.92.28,80.48C530.17,332.35,535.7,357,534.44,366.22Z"/><path class="cls-34" d="M527,233.33c6,18,5.24,28.4-2.75,57.47-13.31,48.45,8.54,73.32-37.63,97.75,28-1.6,45.6-5.91,47.82-22.33,1.26-9.26-4.27-33.87,0-60.52,5.51-34.29,15.79-62.31,2.12-78.87C532.78,222.25,525,227.25,527,233.33Z"/><path class="cls-35" d="M360.9,482.06c-7.81-2.89-18.25-9-18.25-9s-13,14-14.45,15.37c4.81,1.9,2.39,15.8,6.37,18s14.51-7.32,19.58-6.16C354.61,495.81,359.53,484.48,360.9,482.06Z"/><path class="cls-29" d="M437.7,459.49l-21,10.18c-2.61-2-4-6.8-5.83-9.64-3.3-5.11-6.83-4.33-12.32-12.36l-13.7-23.34,28.9-43.92L432.4,431c1.6,4.11,1,15.38,1,15.38C434.84,449.71,441.09,458.18,437.7,459.49Z"/><path class="cls-36" d="M534.44,272.94c-7.05,1.19-28.81,4.09-35.62,1.06.71,6.74,1.44,18.69,1.44,18.69s-58.16-5.55-80,2.77c0-.71,0-1.55.05-2.47.27-7.78,1.55-21.8,1.55-21.8s-10.53-2-13.64-5.17a3.65,3.65,0,0,1-.54-.68c.48-4,5.3-20.75,14.18-34.47C429.38,219.3,440,214,459.27,211.31l25.45-1.77s25.33-2.68,37,10.08S534.44,272.94,534.44,272.94Z"/><path class="cls-37" d="M421.9,271.19s0,12.24,1.06,21c-20.13,9.07-24.43,16.27-24.17,17.75L394.5,292.3l8.43-.91L408.26,266C411.37,269.17,421.9,271.19,421.9,271.19Z"/><path class="cls-38" d="M396.38,318.8H309.9L294,250.66a5.7,5.7,0,0,1,5.56-7h80.84Z"/><path class="cls-39" d="M510.89,335.74s10.64,28.3-23.18,40.18c-21.87,7.68-63,6.1-63,6.1l-46.35,85.85a14.43,14.43,0,0,1-6.72,6.26l-1.29.58c-1.58,2.26-6.31,14-8.86,12.93l-24.3-11.37c-2.17-.89,3.24-8.75,4.28-10.85.72-1.46-.46-10.24.63-14.79,7.5-31.5,29.13-87.34,36.51-96.45,7.53-9.3,19-13.41,29-15.11,10.86-1.85,24.18-6.41,24.18-6.41Z"/><path class="cls-40" d="M421.29,334.38s-3.62-.45-9.27-.82"/><path class="cls-41" d="M470.2,222.94a13.39,13.39,0,0,1-14.57-7.28s-.5-.92-1.16-5l-.29-1.81-.27-1.67-.34-2a24.1,24.1,0,0,1-2.88.19c-7.55,0-19.89-3-25.28-14.43-3.77-8-1.75-16.09-2.38-21s-3.11-8.11-4.77-13.48c-2.12-6.87-.52-16.07,2.65-18.62,14.27-11.56,43.7-6.76,43.7-6.76s10,2.88,9,23.09c.88-.78-.46,3.65.83,3.2,2.7-.9,5.13-.8,6.93.24,4,2.25,4.92,8.94-.79,19.13-.06.12-.13.24-.2.36a44.29,44.29,0,0,0,.44,5.65c0,.28.07.57.11.87.46,3.46,1,7.94,1.63,12.27.84,6.25,1.8,11.6,2.14,13.68C485.53,214.59,480.82,221.22,470.2,222.94Z"/><path class="cls-42" d="M473.63,154.14c1-20.21-9-23.09-9-23.09s-29.43-4.8-43.7,6.76c-2.24,1.8-2.13,5.67-2.23,9,5.54-5.83,18.41-5.5,28.4-6.55,4.78-.5,3.33,4.88,4.69,4.94,10.3-3.32,18,1.05,18.08,16.21l4.5-4.06C473.26,157.5,474.48,153.39,473.63,154.14Z"/><path class="cls-43" d="M577.74,517.51h-8.64c-2.59,0-4.69-1.41-4.69-3.16V332.88h18V514.35C582.43,516.1,580.33,517.51,577.74,517.51Z"/><path class="cls-44" d="M270.11,517.51H258.86c-1.54,0-2.79-.9-2.79-2V332.88H272.9V515.5C272.9,516.61,271.65,517.51,270.11,517.51Z"/><polygon class="cls-45" points="507.9 328.1 423.24 318.8 423.24 290.8 517.63 298.69 507.9 328.1"/><path class="cls-46" d="M256.35,318.64H582a10.45,10.45,0,0,1,10.45,10.45v8.47a0,0,0,0,1,0,0H245.9a0,0,0,0,1,0,0v-8.47A10.45,10.45,0,0,1,256.35,318.64Z"/><path class="cls-47" d="M433,314.55l-.91,4.06H396.38l-18.68-71.39a2.84,2.84,0,0,1,2.74-3.55h0a2.84,2.84,0,0,1,2.76,2.17l11.3,46.47,4.29,17.63v0a1.45,1.45,0,0,0,0,.17l0,.06h30.6A3.59,3.59,0,0,1,433,314.55Z"/><circle class="cls-25" cx="341.4" cy="283.05" r="7.26"/><line class="cls-48" x1="498.88" y1="273.64" x2="496.51" y2="259.94"/><line class="cls-48" x1="421.9" y1="271.19" x2="424.01" y2="259.94"/><path class="cls-39" d="M485.24,146.93c.14-3.54-.54-7.28-1.71-12.37-2.52-11-9.89-15.57-21.42-17.64l-11-1.28c-1-.12-19.44-1.46-28,3.59-3.22,1.89-7.45,6.5-7.4,9.57.13,7.84,0,12,1.78,18,3.76-16.05,12.3,2.74,32.41-13.62,3.73-3,3.33,4.88,4.69,4.94,11.63-3.75,19.9,2.29,17.75,22.57,3-1.79,5-3.64,6.79-3.88C481.38,153.94,485.16,148.79,485.24,146.93Z"/><path class="cls-49" d="M480.95,183.59a43.92,43.92,0,0,1-26.77,25.28l-.27-1.67-.34-2a24.1,24.1,0,0,1-2.88.19c5.9-5.08,22.31-19.44,29.91-28.63-.06.12-.13.24-.2.36a44.29,44.29,0,0,0,.44,5.65C480.88,183,480.91,183.29,480.95,183.59Z"/><path class="cls-39" d="M474.35,159.78c.36-.41,1.48-1.42,1.48-1.42l-.86-3.74-5.28,3.52a3.21,3.21,0,0,0-1.4,3.09l1.77,13.29c-7.32,4.49-24,17.39-27.16,17.91-4,.67-5.34-4.33-7.5-3.17s-1.84,4.17-3.34,4.17c-.78,0-5.89-3.2-7.57-5.35,0,0,2.6,8.48,3.16,10,1.29,3.45,8.82,10.43,8.82,10.43a3.53,3.53,0,0,0,2.94,1l9.45-1.14,4.75-2.95c6.62-3.81,21.94-18.81,22-20.86C475.94,172.57,470.75,163.85,474.35,159.78Z"/><path class="cls-50" d="M476,163.5s2.13-4,4.38-1.5,0,7.63,0,7.63Z"/><path class="cls-51" d="M532.79,273.24c-.09,8.57-.72,28-4.39,36.3-4.78,10.81-11.33,10.67-29.23,7.66s-47.54-13.67-56.76-13.67-15,6.67-15,6.67H398.64c-.26-1.48-.15-9.1,21.7-17.22,3.66-1.55,14.21-2.83,23.35-3.49,25.1-1.81,56,2.77,56,2.77s-.12-11.53-.83-18.27C505.58,277,526.55,274.18,532.79,273.24Z"/><path class="cls-52" d="M474.24,293.92s9.14-.75,9.14,6.91-9.14,7.74-9.14,7.74"/><path class="cls-53" d="M475.31,318.61H452.57l-3.19-32.35a3,3,0,0,1,3.12-3.21h21.8a3,3,0,0,1,3.13,3.12Z"/><path class="cls-48" d="M452.15,218.79s1.42,9,16.92,8.17,20.21-13,20.21-13"/><path class="cls-29" d="M299.16,494.18s-9.48-2.09-13.11-.79-4.56,4-4.82,6.89,2.79,7,14.57,11.36a356.38,356.38,0,0,0,36.82,10.93c3.86.78,10.4,1.94,16,1.62a7.28,7.28,0,0,0,6.55-5.55,19.9,19.9,0,0,1,1.16-3.36c1-2,.62-4.36,1.2-6s2-13-1.2-14.64-8.36,8.07-15.44,7.27-7.87-9.66-7.87-9.66,3.38-3.09,1.56-5.26.27-3.89-1.17-4.75-6.52,2.17-6.52,2.17-16.35,6.72-22.76,9.43C302.83,494.34,299.16,494.18,299.16,494.18Z"/><path class="cls-48" d="M285.49,502.62c21,12,45.42,12.25,45.42,12.25,6.83,1.59,13.65,6.13,22.41.92l.77-.42"/><path class="cls-29" d="M417.76,471.17s12.13,3.65,14.5,7.6,10.47-8.1,6.9-14.91,1.3-5.7,4.65-2.93,6.06.76,8.4,2.75,7.15,6.4,3.64,14.68-11.37,11.84-14.49,18.05-2,18.86-6.79,23.59-13.89,10.78-24.21,5.73-1.1-18.86,1.3-22.3,2.87-15.2,3-20S414,472.6,417.76,471.17Z"/><path class="cls-54" d="M443.52,462.43s6.79,2.06,4.44,10.36S437,487.44,436.15,496.21s-.8,16.56-9.29,22.92-12.2,5.47-12.2,5.47"/></g></svg>