<svg width="586" height="289" viewBox="0 0 586 289" fill="none" xmlns="http://www.w3.org/2000/svg">
<rect x="358" y="37" width="228" height="17" rx="8.5" fill="white"/>
<rect x="358" y="37" width="38" height="17" rx="8.5" fill="#F080B8"/>
<path d="M364.865 12.248H361.525V18H359.641V3.78125H364.348C365.949 3.78125 367.18 4.14583 368.039 4.875C368.905 5.60417 369.338 6.66536 369.338 8.05859C369.338 8.94401 369.097 9.71549 368.615 10.373C368.14 11.0306 367.476 11.5221 366.623 11.8477L369.963 17.8828V18H367.951L364.865 12.248ZM361.525 10.7148H364.406C365.337 10.7148 366.076 10.474 366.623 9.99219C367.176 9.51042 367.453 8.86589 367.453 8.05859C367.453 7.17969 367.189 6.50586 366.662 6.03711C366.141 5.56836 365.386 5.33073 364.396 5.32422H361.525V10.7148ZM380.012 11.4277H373.85V16.4668H381.008V18H371.975V3.78125H380.91V5.32422H373.85V9.89453H380.012V11.4277ZM391.193 14.2891H385.236L383.898 18H381.965L387.395 3.78125H389.035L394.475 18H392.551L391.193 14.2891ZM385.803 12.7461H390.637L388.215 6.0957L385.803 12.7461ZM406.73 13.4883C406.555 14.9922 405.998 16.1543 405.061 16.9746C404.13 17.7884 402.889 18.1953 401.34 18.1953C399.66 18.1953 398.312 17.5931 397.297 16.3887C396.288 15.1842 395.783 13.5729 395.783 11.5547V10.1875C395.783 8.86589 396.018 7.70378 396.486 6.70117C396.962 5.69857 397.632 4.93034 398.498 4.39648C399.364 3.85612 400.367 3.58594 401.506 3.58594C403.016 3.58594 404.227 4.00911 405.139 4.85547C406.05 5.69531 406.581 6.86068 406.73 8.35156H404.846C404.683 7.21875 404.328 6.39844 403.781 5.89062C403.241 5.38281 402.482 5.12891 401.506 5.12891C400.308 5.12891 399.367 5.57161 398.684 6.45703C398.007 7.34245 397.668 8.60221 397.668 10.2363V11.6133C397.668 13.1562 397.99 14.3835 398.635 15.2949C399.279 16.2064 400.181 16.6621 401.34 16.6621C402.382 16.6621 403.179 16.4277 403.732 15.959C404.292 15.4837 404.663 14.6602 404.846 13.4883H406.73ZM418.83 5.32422H414.26V18H412.395V5.32422H407.834V3.78125H418.83V5.32422Z" fill="white"/>
<rect x="4" y="37" width="228" height="17" rx="8.5" fill="white"/>
<rect x="4" y="37" width="130" height="17" rx="8.5" fill="#F09C80"/>
<path d="M5.26367 15.3887L3.52539 17.1953V22H1.65039V7.78125H3.52539V14.8125L9.84375 7.78125H12.1094L6.51367 14.0605L12.5488 22H10.3027L5.26367 15.3887ZM24.8145 15.3496C24.8145 16.7428 24.5801 17.9603 24.1113 19.002C23.6426 20.0371 22.9785 20.8281 22.1191 21.375C21.2598 21.9219 20.2572 22.1953 19.1113 22.1953C17.9915 22.1953 16.9987 21.9219 16.1328 21.375C15.2669 20.8216 14.5931 20.0371 14.1113 19.0215C13.6361 17.9993 13.3919 16.8177 13.3789 15.4766V14.4512C13.3789 13.084 13.6165 11.8763 14.0918 10.8281C14.5671 9.77995 15.2376 8.97917 16.1035 8.42578C16.9759 7.86589 17.972 7.58594 19.0918 7.58594C20.2311 7.58594 21.2337 7.86263 22.0996 8.41602C22.972 8.96289 23.6426 9.76042 24.1113 10.8086C24.5801 11.8503 24.8145 13.0645 24.8145 14.4512V15.3496ZM22.9492 14.4316C22.9492 12.7454 22.6107 11.4531 21.9336 10.5547C21.2565 9.64974 20.3092 9.19727 19.0918 9.19727C17.9069 9.19727 16.9727 9.64974 16.2891 10.5547C15.612 11.4531 15.2637 12.7031 15.2441 14.3047V15.3496C15.2441 16.9837 15.5859 18.2695 16.2695 19.207C16.9596 20.138 17.9069 20.6035 19.1113 20.6035C20.3223 20.6035 21.2598 20.1641 21.9238 19.2852C22.5879 18.3997 22.9297 17.1335 22.9492 15.4863V14.4316ZM37.1777 9.32422H32.6074V22H30.7422V9.32422H26.1816V7.78125H37.1777V9.32422ZM41.1719 20.4668H47.9102V22H39.2871V7.78125H41.1719V20.4668ZM52.0605 22H50.1855V7.78125H52.0605V22ZM66.4258 22H64.541L57.3828 11.043V22H55.498V7.78125H57.3828L64.5605 18.7871V7.78125H66.4258V22Z" fill="white"/>
<rect x="4" y="122" width="228" height="17" rx="8.5" fill="white"/>
<rect x="4" y="122" width="114" height="17" rx="8.5" fill="#B6F080"/>
<path d="M7.60742 82.7812H9.49219V92.8496C9.49219 94.2103 9.08203 95.2747 8.26172 96.043C7.44792 96.8112 6.36068 97.1953 5 97.1953C3.58724 97.1953 2.48698 96.834 1.69922 96.1113C0.911458 95.3887 0.517578 94.3763 0.517578 93.0742H2.39258C2.39258 93.888 2.61393 94.5228 3.05664 94.9785C3.50586 95.4342 4.15365 95.6621 5 95.6621C5.77474 95.6621 6.39974 95.418 6.875 94.9297C7.35677 94.4414 7.60091 93.7578 7.60742 92.8789V82.7812ZM20.3223 93.2891H14.3652L13.0273 97H11.0938L16.5234 82.7812H18.1641L23.6035 97H21.6797L20.3223 93.2891ZM14.9316 91.7461H19.7656L17.3438 85.0957L14.9316 91.7461ZM29.3652 94.5098L33.4277 82.7812H35.4785L30.2051 97H28.5449L23.2812 82.7812H25.3223L29.3652 94.5098ZM44.502 93.2891H38.5449L37.207 97H35.2734L40.7031 82.7812H42.3438L47.7832 97H45.8594L44.502 93.2891ZM39.1113 91.7461H43.9453L41.5234 85.0957L39.1113 91.7461Z" fill="white"/>
<rect x="4" y="272" width="228" height="17" rx="8.5" fill="white"/>
<rect x="5" y="272" width="68" height="17" rx="8.5" fill="#F0F080"/>
<path d="M12.5781 247H10.6934V240.428H3.52539V247H1.65039V232.781H3.52539V238.895H10.6934V232.781H12.5781V247ZM25.4395 234.324H20.8691V247H19.0039V234.324H14.4434V232.781H25.4395V234.324ZM29.9707 232.781L34.6191 244.383L39.2676 232.781H41.6992V247H39.8242V241.463L40 235.486L35.332 247H33.8965L29.2383 235.516L29.4238 241.463V247H27.5488V232.781H29.9707ZM46.8945 245.467H53.6328V247H45.0098V232.781H46.8945V245.467ZM55.8496 248.221H54.2969L60.2344 232.781H61.7773L55.8496 248.221ZM74.4727 242.488C74.2969 243.992 73.7402 245.154 72.8027 245.975C71.8717 246.788 70.6315 247.195 69.082 247.195C67.4023 247.195 66.0547 246.593 65.0391 245.389C64.0299 244.184 63.5254 242.573 63.5254 240.555V239.188C63.5254 237.866 63.7598 236.704 64.2285 235.701C64.7038 234.699 65.3743 233.93 66.2402 233.396C67.1061 232.856 68.1087 232.586 69.248 232.586C70.7585 232.586 71.9694 233.009 72.8809 233.855C73.7923 234.695 74.3229 235.861 74.4727 237.352H72.5879C72.4251 236.219 72.0703 235.398 71.5234 234.891C70.9831 234.383 70.2246 234.129 69.248 234.129C68.0501 234.129 67.1094 234.572 66.4258 235.457C65.7487 236.342 65.4102 237.602 65.4102 239.236V240.613C65.4102 242.156 65.7324 243.383 66.377 244.295C67.0215 245.206 67.9232 245.662 69.082 245.662C70.1237 245.662 70.9212 245.428 71.4746 244.959C72.0345 244.484 72.4056 243.66 72.5879 242.488H74.4727ZM81.2305 240.662C79.6224 240.2 78.4505 239.633 77.7148 238.963C76.9857 238.286 76.6211 237.452 76.6211 236.463C76.6211 235.343 77.0671 234.419 77.959 233.689C78.8574 232.954 80.0228 232.586 81.4551 232.586C82.4316 232.586 83.3008 232.775 84.0625 233.152C84.8307 233.53 85.4232 234.051 85.8398 234.715C86.263 235.379 86.4746 236.105 86.4746 236.893H84.5898C84.5898 236.033 84.3164 235.359 83.7695 234.871C83.2227 234.376 82.4512 234.129 81.4551 234.129C80.5306 234.129 79.8079 234.334 79.2871 234.744C78.7728 235.148 78.5156 235.711 78.5156 236.434C78.5156 237.013 78.7598 237.505 79.248 237.908C79.7428 238.305 80.5794 238.67 81.7578 239.002C82.9427 239.334 83.8672 239.702 84.5312 240.105C85.2018 240.503 85.6966 240.968 86.0156 241.502C86.3411 242.036 86.5039 242.664 86.5039 243.387C86.5039 244.539 86.0547 245.464 85.1562 246.16C84.2578 246.85 83.0566 247.195 81.5527 247.195C80.5762 247.195 79.6647 247.01 78.8184 246.639C77.972 246.261 77.3177 245.747 76.8555 245.096C76.3997 244.445 76.1719 243.706 76.1719 242.879H78.0566C78.0566 243.738 78.3724 244.419 79.0039 244.92C79.6419 245.415 80.4915 245.662 81.5527 245.662C82.5423 245.662 83.3008 245.46 83.8281 245.057C84.3555 244.653 84.6191 244.103 84.6191 243.406C84.6191 242.71 84.375 242.173 83.8867 241.795C83.3984 241.411 82.513 241.033 81.2305 240.662ZM93.1055 240.662C91.4974 240.2 90.3255 239.633 89.5898 238.963C88.8607 238.286 88.4961 237.452 88.4961 236.463C88.4961 235.343 88.9421 234.419 89.834 233.689C90.7324 232.954 91.8978 232.586 93.3301 232.586C94.3066 232.586 95.1758 232.775 95.9375 233.152C96.7057 233.53 97.2982 234.051 97.7148 234.715C98.138 235.379 98.3496 236.105 98.3496 236.893H96.4648C96.4648 236.033 96.1914 235.359 95.6445 234.871C95.0977 234.376 94.3262 234.129 93.3301 234.129C92.4056 234.129 91.6829 234.334 91.1621 234.744C90.6478 235.148 90.3906 235.711 90.3906 236.434C90.3906 237.013 90.6348 237.505 91.123 237.908C91.6178 238.305 92.4544 238.67 93.6328 239.002C94.8177 239.334 95.7422 239.702 96.4062 240.105C97.0768 240.503 97.5716 240.968 97.8906 241.502C98.2161 242.036 98.3789 242.664 98.3789 243.387C98.3789 244.539 97.9297 245.464 97.0312 246.16C96.1328 246.85 94.9316 247.195 93.4277 247.195C92.4512 247.195 91.5397 247.01 90.6934 246.639C89.847 246.261 89.1927 245.747 88.7305 245.096C88.2747 244.445 88.0469 243.706 88.0469 242.879H89.9316C89.9316 243.738 90.2474 244.419 90.8789 244.92C91.5169 245.415 92.3665 245.662 93.4277 245.662C94.4173 245.662 95.1758 245.46 95.7031 245.057C96.2305 244.653 96.4941 244.103 96.4941 243.406C96.4941 242.71 96.25 242.173 95.7617 241.795C95.2734 241.411 94.388 241.033 93.1055 240.662Z" fill="white"/>
<rect x="4" y="197" width="228" height="17" rx="8.5" fill="white"/>
<rect x="4" y="197" width="138" height="17" rx="8.5" fill="#8080F0"/>
<path d="M12.1484 170.135C11.6667 170.825 10.9928 171.342 10.127 171.688C9.26758 172.026 8.26497 172.195 7.11914 172.195C5.96029 172.195 4.93164 171.925 4.0332 171.385C3.13477 170.838 2.43815 170.063 1.94336 169.061C1.45508 168.058 1.20443 166.896 1.19141 165.574V164.334C1.19141 162.192 1.68945 160.532 2.68555 159.354C3.68815 158.175 5.0944 157.586 6.9043 157.586C8.38867 157.586 9.58333 157.967 10.4883 158.729C11.3932 159.484 11.9466 160.558 12.1484 161.951H10.2734C9.92188 160.07 8.80208 159.129 6.91406 159.129C5.65755 159.129 4.70378 159.572 4.05273 160.457C3.4082 161.336 3.08268 162.612 3.07617 164.285V165.447C3.07617 167.042 3.44076 168.312 4.16992 169.256C4.89909 170.193 5.88542 170.662 7.12891 170.662C7.83203 170.662 8.44727 170.584 8.97461 170.428C9.50195 170.271 9.93815 170.008 10.2832 169.637V166.443H6.99219V164.92H12.1484V170.135ZM17.2949 172H15.4199V157.781H17.2949V172ZM30.2637 159.324H25.6934V172H23.8281V159.324H19.2676V157.781H30.2637V159.324Z" fill="white"/>
</svg>
