<svg width="85" height="85" viewBox="0 0 85 85" fill="none" xmlns="http://www.w3.org/2000/svg">
<path d="M42.5095 20.7071C30.4492 20.7071 20.7214 30.4371 20.7214 42.5C20.7214 54.5629 30.4492 64.2929 42.5095 64.2929C54.5697 64.2929 64.2975 54.5629 64.2975 42.5C64.2975 30.4371 54.5697 20.7071 42.5095 20.7071ZM42.5095 56.6682C34.7158 56.6682 28.3444 50.3143 28.3444 42.5C28.3444 34.6857 34.6969 28.3318 42.5095 28.3318C50.3221 28.3318 56.6746 34.6857 56.6746 42.5C56.6746 50.3143 50.3031 56.6682 42.5095 56.6682ZM70.2708 19.8156C70.2708 22.6417 67.9953 24.8988 65.1888 24.8988C62.3634 24.8988 60.1068 22.6227 60.1068 19.8156C60.1068 17.0085 62.3823 14.7325 65.1888 14.7325C67.9953 14.7325 70.2708 17.0085 70.2708 19.8156ZM84.7013 24.9746C84.379 18.1655 82.824 12.1341 77.8369 7.16473C72.8687 2.19541 66.8385 0.640132 60.031 0.298728C53.0148 -0.099576 31.9852 -0.099576 24.969 0.298728C18.1804 0.621165 12.1503 2.17645 7.16313 7.14577C2.17596 12.1151 0.639989 18.1465 0.298661 24.9557C-0.0995538 31.9734 -0.0995538 53.0076 0.298661 60.0254C0.621026 66.8345 2.17596 72.866 7.16313 77.8353C12.1503 82.8046 18.1615 84.3599 24.969 84.7013C31.9852 85.0996 53.0148 85.0996 60.031 84.7013C66.8385 84.3788 72.8687 82.8236 77.8369 77.8353C82.8051 72.866 84.36 66.8345 84.7013 60.0254C85.0996 53.0076 85.0996 31.9924 84.7013 24.9746ZM75.6372 67.5552C74.1581 71.2727 71.2948 74.1367 67.5591 75.6351C61.9651 77.8542 48.6913 77.3421 42.5095 77.3421C36.3277 77.3421 23.0349 77.8353 17.4598 75.6351C13.7432 74.1557 10.8798 71.2917 9.38176 67.5552C7.16313 61.96 7.67513 48.6832 7.67513 42.5C7.67513 36.3168 7.1821 23.021 9.38176 17.4448C10.8608 13.7273 13.7242 10.8633 17.4598 9.36489C23.0538 7.14577 36.3277 7.65787 42.5095 7.65787C48.6913 7.65787 61.9841 7.16473 67.5591 9.36489C71.2758 10.8443 74.1392 13.7083 75.6372 17.4448C77.8558 23.04 77.3438 36.3168 77.3438 42.5C77.3438 48.6832 77.8558 61.979 75.6372 67.5552Z" fill="#FFFEFE"/>
</svg>
