<svg width="312" height="299" viewBox="0 0 312 299" fill="none" xmlns="http://www.w3.org/2000/svg">
<path d="M91.5512 89.3712L66.8053 137.938C63.5144 144.396 54.0846 146.09 45.4282 141.679C36.8281 137.297 31.1588 127.858 34.4284 121.441L59.1742 72.8743C62.401 66.5414 73.3699 65.5796 81.97 69.9616C90.4577 74.2863 94.778 83.0383 91.5512 89.3712ZM64.0718 158.31C60.5672 165.188 65.1661 174.505 74.3846 179.202L85.5704 184.901L72.6822 210.613C64.7969 226.088 95.8889 241.772 103.71 226.422L116.767 200.797L137.677 211.451L124.62 237.076C116.778 252.468 147.953 268.406 155.817 252.972L168.874 227.346L180.228 233.132C189.334 237.772 199.574 236.016 203.079 229.138L241.416 153.898L102.409 83.0698L64.0718 158.31ZM243.882 150.03L103.863 78.6866C113.009 60.7363 135.348 52.4666 160.854 55.2136L157.661 34.9385C157.135 32.0815 161.788 32.8148 162.239 35.2637L165.537 55.7505C188.466 59.2454 210.835 71.0657 226.412 86.7681L244.847 77.407C247.171 76.3196 250.422 79.6665 247.801 80.9197L229.543 90.2122C246.588 109.146 253.028 132.08 243.882 150.03ZM159.792 77.864C161.01 75.4735 159.45 72.1429 156.134 70.4531C152.93 68.8206 149.374 69.5449 148.156 71.9355C146.938 74.3261 148.498 77.6566 151.646 79.2605C154.962 80.9503 158.574 80.2546 159.792 77.864ZM223.534 110.342C224.752 107.952 223.192 104.621 220.044 103.017C216.728 101.327 213.117 102.023 211.898 104.414C210.68 106.804 212.24 110.135 215.557 111.825C218.705 113.429 222.316 112.733 223.534 110.342ZM263.978 162.699C255.49 158.375 245.935 159.898 242.644 166.357L217.898 214.923C214.607 221.382 218.948 230.092 227.436 234.417C236.093 238.827 247.005 237.837 250.275 231.42L275.021 182.854C278.311 176.395 272.578 167.081 263.978 162.699Z" fill="#B6F080"/>
</svg>
