<svg width="187" height="167" viewBox="0 0 187 167" fill="none" xmlns="http://www.w3.org/2000/svg">
<path d="M59.4272 140.023L82.252 185.769C85.2874 191.853 82.3734 199.375 75.5791 202.765C68.8289 206.133 59.8552 204.493 56.8395 198.449L34.0147 152.703C31.0384 146.738 35.1239 138.581 41.8741 135.213C48.536 131.889 56.4509 134.058 59.4272 140.023ZM95.1376 199.668C98.3701 206.146 106.796 208.455 114.031 204.845L122.811 200.464L134.986 224.535C142.259 239.112 166.554 226.843 159.34 212.384L147.297 188.247L163.709 180.058L175.752 204.195C182.986 218.693 207.492 206.516 200.238 191.978L188.195 167.841L197.107 163.394C204.254 159.828 207.476 151.708 204.244 145.229L168.883 74.3586L59.7769 128.797L95.1376 199.668ZM167.28 70.3726L57.3796 125.207C48.9435 108.299 52.9056 87.9684 65.847 71.9396L50.4625 62.1991C48.2613 60.8798 50.7827 58.0922 52.6694 59.2231L68.2455 69.0161C80.5879 55.2104 98.4372 46.6992 116.026 45.1759L117.544 26.9034C117.799 24.6544 121.519 24.3776 121.249 26.9297L119.76 45.0397C140.217 44.4046 158.844 53.4648 167.28 70.3726ZM81.0295 86.0241C79.906 83.7723 76.9305 82.8887 74.3274 84.1875C71.8127 85.4422 70.7734 88.329 71.8969 90.5808C73.0204 92.8325 75.996 93.7161 78.4667 92.4834C81.0697 91.1846 82.153 88.2758 81.0295 86.0241ZM131.06 61.0613C129.937 58.8095 126.961 57.9259 124.491 59.1586C121.888 60.4574 120.804 63.3662 121.928 65.618C123.051 67.8697 126.027 68.7533 128.63 67.4545C131.101 66.2218 132.184 63.313 131.06 61.0613ZM184.731 63.9349C178.069 67.2589 174.984 74.7685 178.019 80.8522L200.844 126.598C203.879 132.682 211.774 134.811 218.436 131.487C225.231 128.097 229.272 119.963 226.256 113.919L203.431 68.1727C200.396 62.089 191.481 60.5669 184.731 63.9349Z" fill="#B6F080"/>
</svg>
