<svg width="63" height="84" viewBox="0 0 63 84" fill="none" xmlns="http://www.w3.org/2000/svg">
<path d="M36.75 22.3125V0H3.9375C1.75547 0 0 1.75547 0 3.9375V80.0625C0 82.2445 1.75547 84 3.9375 84H59.0625C61.2445 84 63 82.2445 63 80.0625V26.25H40.6875C38.5219 26.25 36.75 24.4781 36.75 22.3125ZM49.2926 56.9887L33.4737 72.6895C32.3827 73.774 30.6206 73.774 29.5296 72.6895L13.7107 56.9887C12.0455 55.3366 13.2136 52.5 15.5564 52.5H26.25V39.375C26.25 37.9247 27.4247 36.75 28.875 36.75H34.125C35.5753 36.75 36.75 37.9247 36.75 39.375V52.5H47.4436C49.7864 52.5 50.9545 55.3366 49.2926 56.9887ZM61.8516 17.2266L45.7898 1.14844C45.0516 0.410156 44.0508 0 43.0008 0H42V21H63V19.9992C63 18.9656 62.5898 17.9648 61.8516 17.2266Z" fill="#FFFEFE"/>
</svg>
