<svg width="86" height="78" viewBox="0 0 86 78" fill="none" xmlns="http://www.w3.org/2000/svg">
<path d="M76.7857 0H9.21429C4.12723 0 0 3.7433 0 8.35714V69.6429C0 74.2567 4.12723 78 9.21429 78H76.7857C81.8728 78 86 74.2567 86 69.6429V8.35714C86 3.7433 81.8728 0 76.7857 0ZM53.2317 66.8049C51.6192 67.0661 51.0241 66.1607 51.0241 65.4121C51.0241 64.4719 51.0625 59.6665 51.0625 55.7839C51.0625 53.0679 50.0643 51.3442 48.8933 50.4388C55.996 49.725 63.4826 48.8371 63.4826 37.7116C63.4826 34.5429 62.2348 32.9585 60.2 30.9214C60.5263 30.1728 61.6205 27.0911 59.8737 23.0866C57.2054 22.3379 51.1009 26.2031 51.1009 26.2031C48.567 25.5589 45.8219 25.2281 43.1152 25.2281C40.4085 25.2281 37.6634 25.5589 35.1295 26.2031C35.1295 26.2031 29.025 22.3379 26.3567 23.0866C24.6098 27.0737 25.6848 30.1554 26.0304 30.9214C23.9955 32.9585 23.0357 34.5429 23.0357 37.7116C23.0357 48.7848 30.196 49.725 37.2987 50.4388C36.3772 51.1875 35.5518 52.4759 35.2638 54.3214C33.4402 55.0701 28.7754 56.3585 25.992 51.9013C24.2451 49.1504 21.0969 48.9241 21.0969 48.9241C17.9871 48.8893 20.8857 50.7 20.8857 50.7C22.9589 51.5705 24.4179 54.9134 24.4179 54.9134C26.2799 60.0844 35.1871 58.3433 35.1871 58.3433C35.1871 60.7634 35.2254 64.6982 35.2254 65.4121C35.2254 66.1607 34.6496 67.0661 33.0179 66.8049C20.3482 62.9571 11.4795 52.0232 11.4795 39.2438C11.4795 23.2607 24.9554 11.1254 42.5777 11.1254C60.2 11.1254 74.4821 23.2607 74.4821 39.2438C74.5013 52.0232 65.9013 62.9746 53.2317 66.8049ZM34.4 56.167C34.0353 56.2366 33.6897 56.0973 33.6513 55.871C33.6129 55.6098 33.8625 55.3835 34.2272 55.3138C34.592 55.279 34.9375 55.4183 34.9759 55.6446C35.0335 55.871 34.7839 56.0973 34.4 56.167ZM32.5763 56.0103C32.5763 56.2366 32.2884 56.4281 31.9045 56.4281C31.4821 56.4629 31.1942 56.2714 31.1942 56.0103C31.1942 55.7839 31.4821 55.5924 31.8661 55.5924C32.2308 55.5576 32.5763 55.7491 32.5763 56.0103ZM29.9464 55.8188C29.8696 56.0451 29.4857 56.1496 29.1594 56.0451C28.7946 55.9754 28.5451 55.7143 28.6219 55.4879C28.6987 55.2616 29.0826 55.1571 29.4089 55.2268C29.7929 55.3313 30.0424 55.5924 29.9464 55.8188ZM27.5853 54.8786C27.4125 55.0701 27.0478 55.0353 26.7598 54.7741C26.4719 54.5478 26.3951 54.217 26.5871 54.0603C26.7598 53.8688 27.1246 53.9036 27.4125 54.1647C27.6621 54.3911 27.758 54.7393 27.5853 54.8786ZM25.8384 53.2942C25.6656 53.3987 25.3393 53.2942 25.1281 53.033C24.917 52.7719 24.917 52.4759 25.1281 52.354C25.3393 52.1973 25.6656 52.3192 25.8384 52.5804C26.0496 52.8415 26.0496 53.1549 25.8384 53.2942ZM24.5906 51.6054C24.4179 51.7621 24.1299 51.675 23.9187 51.5009C23.7076 51.2746 23.6692 51.0134 23.842 50.8915C24.0147 50.7348 24.3027 50.8219 24.5138 50.996C24.725 51.2223 24.7634 51.4835 24.5906 51.6054ZM23.3045 50.317C23.2277 50.4737 22.9781 50.5085 22.767 50.3866C22.5174 50.2821 22.4022 50.0906 22.479 49.9339C22.5558 49.8295 22.767 49.7772 23.0165 49.8643C23.2661 49.9862 23.3813 50.1777 23.3045 50.317Z" fill="white"/>
</svg>
