<svg width="86" height="80" viewBox="0 0 86 80" fill="none" xmlns="http://www.w3.org/2000/svg">
<path d="M79.8571 0H6.12366C2.74509 0 0 2.58929 0 5.76786V74.2321C0 77.4107 2.74509 80 6.12366 80H79.8571C83.2357 80 86 77.4107 86 74.2321V5.76786C86 2.58929 83.2357 0 79.8571 0ZM25.992 68.5714H13.2455V30.3929H26.0112V68.5714H25.992ZM19.6187 25.1786C15.5299 25.1786 12.2281 22.0893 12.2281 18.3036C12.2281 14.5179 15.5299 11.4286 19.6187 11.4286C23.6884 11.4286 27.0094 14.5179 27.0094 18.3036C27.0094 22.1071 23.7076 25.1786 19.6187 25.1786ZM73.7719 68.5714H61.0254V50C61.0254 45.5714 60.9295 39.875 54.4027 39.875C47.7607 39.875 46.7433 44.6964 46.7433 49.6786V68.5714H33.9969V30.3929H46.225V35.6071H46.3978C48.1062 32.6071 52.2719 29.4464 58.4723 29.4464C71.3723 29.4464 73.7719 37.3571 73.7719 47.6429V68.5714Z" fill="#FFFEFE"/>
</svg>
