<svg width="1440" height="332" viewBox="0 0 1440 332" fill="none" xmlns="http://www.w3.org/2000/svg">
<path fill-rule="evenodd" clip-rule="evenodd" d="M0 24.5257L39.6 14.2766C80.4 4.02746 159.6 -16.4708 240 24.5257C320.4 65.5223 399.6 168.014 480 168.014C560.4 168.014 639.6 65.5223 720 45.024C800.4 24.5257 879.6 86.0206 960 127.017C1040.4 168.014 1119.6 188.512 1200 178.263C1280.4 168.014 1359.6 127.017 1400.4 106.519L1440 86.0206V332H1400.4C1359.6 332 1280.4 332 1200 332C1119.6 332 1040.4 332 960 332C879.6 332 800.4 332 720 332C639.6 332 560.4 332 480 332C399.6 332 320.4 332 240 332C159.6 332 80.4 332 39.6 332H0V24.5257Z" fill="#0099FF"/>
</svg>
